#!OML:ASF H:\Dans Jumps\Project 1\Capture day 1\Session 1\subject.ASF
:FULLY-SPECIFIED
:DEGREES
142
root -0.0623262 16.9126 -15.0949 12.4121 -1.48865 -2.18572
lowerback 10.8788 -0.118331 0.445725
upperback 8.45173 -0.14829 1.63021
thorax 2.72853 -0.105003 1.45422
lowerneck -14.7539 0.849756 -1.09921
upperneck 31.5672 1.43773 0.264639
head 12.9905 0.524039 0.510994
rclavicle 6.16232e-015 9.93923e-016
rhumerus -35.3271 -15.5559 -73.6954
rradius 26.0014
rwrist 28.1987
rhand -20.4342 -25.3209
rfingers 7.12502
rthumb 5.92064 -55.2182
lclavicle 6.16232e-015 9.93923e-016
lhumerus -30.4571 0.285069 85.1077
lradius 20.4734
lwrist 14.5213
lhand -28.2977 -6.19262
lfingers 7.12502
lthumb -1.67345 23.7806
rfemur -36.3893 -2.65882 20.5476
rtibia 42.3987
rfoot -17.2787 -1.52869
rtoes 6.17381
lfemur -35.8108 8.0548 -18.9016
ltibia 42.0543
lfoot -16.1942 7.22754
ltoes 0.612691
143
root -0.0591323 16.9032 -15.0988 12.4062 -1.48711 -2.1977
lowerback 10.9729 -0.130499 0.449356
upperback 8.45427 -0.162825 1.63726
thorax 2.68062 -0.112281 1.46104
lowerneck -14.7566 0.858137 -1.10415
upperneck 31.4937 1.4538 0.254531
head 12.9602 0.529654 0.509863
rclavicle 4.37326e-015 4.67144e-015
rhumerus -35.2723 -15.4917 -73.7256
rradius 26.0679
rwrist 28.1028
rhand -20.4609 -25.2907
rfingers 7.12502
rthumb 5.89482 -55.1887
lclavicle 4.37326e-015 4.67144e-015
lhumerus -30.4496 0.156381 85.1291
lradius 20.5544
lwrist 14.6835
lhand -28.3563 -6.29039
lfingers 7.12502
lthumb -1.73001 23.6823
rfemur -36.4993 -2.66909 20.5526
rtibia 42.5823
rfoot -17.3346 -1.53619
rtoes 6.09367
lfemur -35.933 8.0587 -18.905
ltibia 42.2595
lfoot -16.2544 7.2543
ltoes 0.603083
144
root -0.0559229 16.8927 -15.1037 12.4025 -1.48704 -2.21339
lowerback 11.0801 -0.14162 0.457383
upperback 8.45928 -0.175487 1.64467
thorax 2.62824 -0.118451 1.4657
lowerneck -14.7567 0.866965 -1.1056
upperneck 31.4033 1.47035 0.24122
head 12.9224 0.535647 0.506826
rclavicle -8.44835e-015 8.64713e-015
rhumerus -35.2256 -15.425 -73.7548
rradius 26.1345
rwrist 28.0128
rhand -20.487 -25.2543
rfingers 7.12502
rthumb 5.86967 -55.153
lclavicle -8.44835e-015 8.64713e-015
lhumerus -30.4556 0.013934 85.1501
lradius 20.6442
lwrist 14.8553
lhand -28.4016 -6.37756
lfingers 7.12502
lthumb -1.77382 23.5948
rfemur -36.6262 -2.67604 20.5612
rtibia 42.7846
rfoot -17.3923 -1.54317
rtoes 6.0213
lfemur -36.0736 8.06764 -18.9059
ltibia 42.4863
lfoot -16.3168 7.27972
ltoes 0.599879
145
root -0.0527268 16.8811 -15.1096 12.4006 -1.48868 -2.23047
lowerback 11.2008 -0.151945 0.465745
upperback 8.4661 -0.186892 1.65297
thorax 2.57044 -0.124012 1.47109
lowerneck -14.7578 0.878695 -1.0992
upperneck 31.3007 1.49114 0.220372
head 12.8799 0.543545 0.500085
rclavicle 2.18663e-015 -2.19657e-014
rhumerus -35.1879 -15.3561 -73.7815
rradius 26.1993
rwrist 27.9369
rhand -20.5126 -25.2225
rfingers 7.12502
rthumb 5.84498 -55.1219
lclavicle 2.18663e-015 -2.19657e-014
lhumerus -30.4797 -0.126723 85.1671
lradius 20.7445
lwrist 15.0279
lhand -28.4386 -6.45015
lfingers 7.12502
lthumb -1.80948 23.5219
rfemur -36.7694 -2.68051 20.5712
rtibia 43.0054
rfoot -17.4531 -1.54873
rtoes 5.96713
lfemur -36.2313 8.08261 -18.9075
ltibia 42.7335
lfoot -16.3832 7.30345
ltoes 0.598094
146
root -0.0494935 16.8685 -15.1165 12.4012 -1.49294 -2.24934
lowerback 11.3372 -0.161252 0.474901
upperback 8.47431 -0.196678 1.66259
thorax 2.50574 -0.128775 1.47738
lowerneck -14.7565 0.891381 -1.09178
upperneck 31.1819 1.51401 0.195764
head 12.8303 0.552153 0.49192
rclavicle 0 -1.66979e-014
rhumerus -35.1601 -15.2866 -73.8032
rradius 26.2586
rwrist 27.8882
rhand -20.5345 -25.1998
rfingers 7.12502
rthumb 5.82378 -55.0997
lclavicle 0 -1.66979e-014
lhumerus -30.5181 -0.265737 85.1807
lradius 20.8465
lwrist 15.2091
lhand -28.4613 -6.50421
lfingers 7.12502
lthumb -1.83148 23.4677
rfemur -36.9299 -2.68542 20.584
rtibia 43.2445
rfoot -17.5174 -1.55217
rtoes 5.90899
lfemur -36.4066 8.10439 -18.9095
ltibia 43.0005
lfoot -16.4535 7.32399
ltoes 0.601995
147
root -0.0462899 16.8548 -15.1245 12.4066 -1.50062 -2.26652
lowerback 11.4859 -0.168919 0.481492
upperback 8.48371 -0.204321 1.67194
thorax 2.43565 -0.132579 1.48473
lowerneck -14.7562 0.905166 -1.08021
upperneck 31.0518 1.53905 0.165226
head 12.7765 0.561543 0.481034
rclavicle 9.93923e-017 8.54774e-015
rhumerus -35.1416 -15.2268 -73.8166
rradius 26.307
rwrist 27.8865
rhand -20.5443 -25.1921
rfingers 7.12502
rthumb 5.81434 -55.0923
lclavicle 9.93923e-017 8.54774e-015
lhumerus -30.5653 -0.405541 85.1903
lradius 20.9401
lwrist 15.4027
lhand -28.4836 -6.55215
lfingers 7.12502
lthumb -1.85293 23.4196
rfemur -37.1107 -2.69057 20.5958
rtibia 43.5019
rfoot -17.5864 -1.55283
rtoes 5.85141
lfemur -36.6011 8.13171 -18.9158
ltibia 43.2854
lfoot -16.5305 7.34192
ltoes 0.615971
148
root -0.0431268 16.8402 -15.1337 12.4221 -1.50941 -2.2806
lowerback 11.6444 -0.175582 0.484017
upperback 8.49299 -0.210805 1.6817
thorax 2.36026 -0.135987 1.49478
lowerneck -14.754 0.920247 -1.06639
upperneck 30.9061 1.56666 0.129739
head 12.7161 0.571847 0.468157
rclavicle 1.98785e-015 -5.96354e-016
rhumerus -35.1355 -15.1715 -73.82
rradius 26.347
rwrist 27.9263
rhand -20.5419 -25.2019
rfingers 7.12502
rthumb 5.81663 -55.102
lclavicle 1.98785e-015 -5.96354e-016
lhumerus -30.6175 -0.538619 85.1944
lradius 21.0166
lwrist 15.6017
lhand -28.5045 -6.6122
lfingers 7.12502
lthumb -1.87315 23.3593
rfemur -37.3184 -2.70023 20.6065
rtibia 43.778
rfoot -17.6595 -1.55246
rtoes 5.77781
lfemur -36.8207 8.16247 -18.9285
ltibia 43.5868
lfoot -16.6131 7.35724
ltoes 0.63171
149
root -0.0400414 16.8247 -15.1441 12.4478 -1.51911 -2.28983
lowerback 11.8113 -0.181138 0.480672
upperback 8.50412 -0.216221 1.69143
thorax 2.28239 -0.139116 1.50808
lowerneck -14.7504 0.937374 -1.04573
upperneck 30.7424 1.59779 0.0854379
head 12.6484 0.58354 0.451162
rclavicle -5.36719e-015 6.65929e-015
rhumerus -35.138 -15.1324 -73.8079
rradius 26.3713
rwrist 28.0151
rhand -20.5218 -25.2237
rfingers 7.12502
rthumb 5.83602 -55.1233
lclavicle -5.36719e-015 6.65929e-015
lhumerus -30.6721 -0.658445 85.1903
lradius 21.0759
lwrist 15.7947
lhand -28.5309 -6.65956
lfingers 7.12502
lthumb -1.89864 23.3117
rfemur -37.5525 -2.71344 20.6139
rtibia 44.0733
rfoot -17.7366 -1.55127
rtoes 5.6903
lfemur -37.0647 8.19574 -18.949
ltibia 43.9029
lfoot -16.7006 7.37031
ltoes 0.643383
150
root -0.0370455 16.8084 -15.1557 12.4853 -1.5272 -2.29104
lowerback 11.9861 -0.186118 0.470495
upperback 8.51641 -0.22136 1.69931
thorax 2.20166 -0.142334 1.52337
lowerneck -14.7476 0.957354 -1.01214
upperneck 30.5627 1.63359 0.0269036
head 12.5748 0.597105 0.427154
rclavicle -1.68967e-015 2.5842e-015
rhumerus -35.1576 -15.0998 -73.7835
rradius 26.3915
rwrist 28.1274
rhand -20.4867 -25.2521
rfingers 7.12502
rthumb 5.86991 -55.1508
lclavicle -1.68967e-015 2.5842e-015
lhumerus -30.7268 -0.757765 85.1729
lradius 21.1139
lwrist 15.9689
lhand -28.5621 -6.72738
lfingers 7.12502
lthumb -1.92877 23.2436
rfemur -37.8159 -2.73279 20.6149
rtibia 44.3889
rfoot -17.8176 -1.55159
rtoes 5.59138
lfemur -37.3347 8.22696 -18.9807
ltibia 44.2324
lfoot -16.7894 7.38501
ltoes 0.638814
151
root -0.0341617 16.7912 -15.1685 12.5353 -1.53203 -2.28494
lowerback 12.1667 -0.190722 0.453842
upperback 8.53209 -0.226562 1.70639
thorax 2.1215 -0.145831 1.54155
lowerneck -14.7535 0.976016 -0.976805
upperneck 30.3705 1.66766 -0.0341645
head 12.4984 0.60991 0.40171
rclavicle 2.08724e-015 -1.02374e-014
rhumerus -35.191 -15.0782 -73.7448
rradius 26.406
rwrist 28.2454
rhand -20.4307 -25.2816
rfingers 7.12502
rthumb 5.92404 -55.1788
lclavicle 2.08724e-015 -1.02374e-014
lhumerus -30.7844 -0.826477 85.1397
lradius 21.1362
lwrist 16.1032
lhand -28.5999 -6.76994
lfingers 7.12502
lthumb -1.96534 23.2008
rfemur -38.1085 -2.75674 20.6101
rtibia 44.7249
rfoot -17.9023 -1.55294
rtoes 5.49049
lfemur -37.6313 8.25463 -19.0223
ltibia 44.5744
lfoot -16.8789 7.39995
ltoes 0.625908
152
root -0.0312704 16.7732 -15.1825 12.5954 -1.5372 -2.26919
lowerback 12.3573 -0.194367 0.427828
upperback 8.55187 -0.23134 1.71207
thorax 2.04054 -0.149469 1.56361
lowerneck -14.7687 0.989941 -0.953743
upperneck 30.1626 1.69575 -0.0873034
head 12.4178 0.619871 0.380609
rclavicle -2.18663e-015 6.55989e-015
rhumerus -35.2357 -15.0753 -73.6867
rradius 26.4057
rwrist 28.3647
rhand -20.3717 -25.2898
rfingers 7.12502
rthumb 5.98101 -55.1854
lclavicle -2.18663e-015 6.55989e-015
lhumerus -30.8497 -0.860127 85.0895
lradius 21.1455
lwrist 16.1839
lhand -28.6437 -6.8295
lfingers 7.12502
lthumb -2.00758 23.1408
rfemur -38.4279 -2.78378 20.5958
rtibia 45.0813
rfoot -17.9915 -1.55464
rtoes 5.38334
lfemur -37.9502 8.27834 -19.076
ltibia 44.9285
lfoot -16.9673 7.41709
ltoes 0.611649
153
root -0.0283332 16.7543 -15.1976 12.665 -1.54714 -2.24693
lowerback 12.5573 -0.194993 0.396474
upperback 8.57628 -0.232715 1.71534
thorax 1.95953 -0.15157 1.5859
lowerneck -14.7932 1.00198 -0.933149
upperneck 29.9408 1.72124 -0.139013
head 12.3339 0.62873 0.360185
rclavicle -6.95746e-016 3.27995e-015
rhumerus -35.2954 -15.0901 -73.6131
rradius 26.3952
rwrist 28.4643
rhand -20.3215 -25.2709
rfingers 7.12502
rthumb 6.02944 -55.1651
lclavicle -6.95746e-016 3.27995e-015
lhumerus -30.9268 -0.866125 85.0233
lradius 21.1469
lwrist 16.211
lhand -28.6856 -6.85423
lfingers 7.12502
lthumb -2.04804 23.1157
rfemur -38.7735 -2.80823 20.5744
rtibia 45.4566
rfoot -18.0843 -1.55748
rtoes 5.27554
lfemur -38.2909 8.30171 -19.1394
ltibia 45.2953
lfoot -17.0552 7.43827
ltoes 0.593072
154
root -0.025243 16.7344 -15.2139 12.7443 -1.56451 -2.22123
lowerback 12.7675 -0.192489 0.360385
upperback 8.60491 -0.230535 1.71859
thorax 1.87758 -0.152102 1.61055
lowerneck -14.8221 1.01027 -0.928138
upperneck 29.6993 1.74238 -0.18082
head 12.2432 0.63542 0.345585
rclavicle 8.94531e-016 -2.38542e-015
rhumerus -35.3701 -15.1228 -73.5202
rradius 26.3698
rwrist 28.5419
rhand -20.2817 -25.2352
rfingers 7.12502
rthumb 6.06784 -55.1283
lclavicle 8.94531e-016 -2.38542e-015
lhumerus -31.0209 -0.846721 84.946
lradius 21.1427
lwrist 16.1902
lhand -28.7275 -6.85912
lfingers 7.12502
lthumb -2.08854 23.1104
rfemur -39.1451 -2.82833 20.5486
rtibia 45.8483
rfoot -18.1791 -1.56045
rtoes 5.16075
lfemur -38.6537 8.32561 -19.2094
ltibia 45.6752
lfoot -17.1424 7.46434
ltoes 0.583271
155
root -0.0219465 16.7136 -15.2313 12.8346 -1.58756 -2.19399
lowerback 12.9851 -0.187291 0.326488
upperback 8.6377 -0.224767 1.71927
thorax 1.79623 -0.150695 1.63096
lowerneck -14.8558 1.01675 -0.929101
upperneck 29.4406 1.76022 -0.21575
head 12.1469 0.641073 0.334149
rclavicle -3.97569e-016 -5.96354e-015
rhumerus -35.4629 -15.1877 -73.4055
rradius 26.3206
rwrist 28.6232
rhand -20.2735 -25.1763
rfingers 7.12502
rthumb 6.07572 -55.0692
lclavicle -3.97569e-016 -5.96354e-015
lhumerus -31.1272 -0.819238 84.8593
lradius 21.1264
lwrist 16.1448
lhand -28.7737 -6.83168
lfingers 7.12502
lthumb -2.13311 23.1374
rfemur -39.5427 -2.84443 20.5205
rtibia 46.2541
rfoot -18.2752 -1.56441
rtoes 5.04479
lfemur -39.0405 8.34834 -19.2841
ltibia 46.0692
lfoot -17.2295 7.4948
ltoes 0.587771
